<svg width="16" height="16" viewBox="0 0 16 16" fill="none" xmlns="http://www.w3.org/2000/svg">
<path d="M15.8343 7.16467C14.5337 4.02733 11.4583 2 7.99967 2C4.541 2 1.46567 4.02733 0.165 7.16467C-0.055 7.69533 -0.055 8.304 0.165 8.83533C1.46567 11.9727 4.541 14 7.99967 14C11.4583 14 14.5337 11.9727 15.8343 8.83533C16.0543 8.30467 16.0543 7.69533 15.8343 7.16467ZM7.99967 10.6667C6.529 10.6667 5.333 9.47067 5.333 8C5.333 6.52933 6.529 5.33333 7.99967 5.33333C9.47033 5.33333 10.6663 6.52933 10.6663 8C10.6663 9.47067 9.47033 10.6667 7.99967 10.6667Z" fill="black"/>
</svg>
