<svg width="16" height="16" viewBox="0 0 16 16" fill="none" xmlns="http://www.w3.org/2000/svg">
<g clip-path="url(#clip0)">
<path d="M15.7826 7.65612C15.4923 7.36581 15.0215 7.36574 14.7311 7.65606L10.7656 11.6215C10.4753 11.9118 10.4753 12.3826 10.7656 12.673C11.0559 12.9634 11.5267 12.9634 11.8171 12.673L15.7826 8.70756C16.073 8.41725 16.073 7.94647 15.7826 7.65612Z" fill="black"/>
<path d="M0.623321 10.5474L0.448102 10.7226C0.31982 10.8508 0.242882 11.0215 0.231726 11.2026L0.00141268 14.9379C-0.0117124 15.1506 0.0671004 15.3587 0.217789 15.5094V15.5094C0.368539 15.6601 0.576571 15.7389 0.78926 15.7257L4.52459 15.4956C4.70556 15.4843 4.87637 15.4074 5.00462 15.2792L5.1799 15.1039L0.623321 10.5474Z" fill="black"/>
<path d="M9.07769 2.09284L1.6748 9.49573L6.23129 14.0522L13.6342 6.64933L9.07769 2.09284Z" fill="black"/>
<path d="M14.5107 1.21655C13.9021 0.608045 13.093 0.272919 12.2324 0.272919C11.455 0.272856 10.7202 0.54717 10.1367 1.04861L14.6787 5.59056C15.1801 5.00709 15.4544 4.27228 15.4544 3.49484C15.4544 2.63421 15.1192 1.82508 14.5107 1.21655Z" fill="black"/>
</g>
<defs>
<clipPath id="clip0">
<rect width="16" height="16" fill="white"/>
</clipPath>
</defs>
</svg>
