<svg width="18" height="18" viewBox="0 0 18 18" fill="none" xmlns="http://www.w3.org/2000/svg">
<g clip-path="url(#clip0)">
<path d="M17.8771 8.62201C16.7846 7.19059 15.4724 5.94106 13.9892 4.91983L16.5259 2.38314C16.7813 2.1365 16.7883 1.72954 16.5417 1.47416C16.2951 1.21878 15.8881 1.2117 15.6327 1.45834C15.6274 1.4635 15.6221 1.46877 15.6169 1.47416L12.8456 4.24292C11.666 3.59369 10.3462 3.24071 9.00002 3.21434C4.11433 3.21434 0.283586 8.40087 0.122861 8.62198C-0.0409536 8.84734 -0.0409536 9.15259 0.122861 9.37796C1.21543 10.8094 2.52764 12.0589 4.01082 13.0801L1.47413 15.6168C1.21875 15.8635 1.21167 16.2704 1.45831 16.5258C1.70496 16.7812 2.11191 16.7883 2.36729 16.5416C2.37264 16.5365 2.37792 16.5312 2.38311 16.5258L5.15444 13.7571C6.33406 14.4063 7.65376 14.7593 8.99999 14.7856C13.8857 14.7856 17.7164 9.5991 17.8771 9.37796C18.041 9.15263 18.041 8.84738 17.8771 8.62201ZM4.94553 12.1474C3.63596 11.2752 2.4621 10.2147 1.46193 9C2.4082 7.8538 5.47717 4.50003 9.00002 4.50003C10.0023 4.5203 10.9877 4.76178 11.8858 5.20716L10.7698 6.32316C9.29323 5.34287 7.30154 5.74515 6.32125 7.2217C5.60716 8.29729 5.60716 9.69609 6.32125 10.7717L4.94553 12.1474ZM10.7357 8.17393C10.8615 8.43119 10.9275 8.71362 10.9286 9C10.9286 10.0651 10.0651 10.9286 9.00002 10.9286C8.71364 10.9275 8.43121 10.8615 8.17395 10.7357L10.7357 8.17393ZM7.26432 9.82604C7.13851 9.56878 7.07256 9.28635 7.07147 8.99997C7.07147 7.93485 7.93491 7.07141 9.00002 7.07141C9.28641 7.0725 9.56884 7.13846 9.8261 7.26427L7.26432 9.82604ZM9.00002 13.4999C7.99774 13.4797 7.01237 13.2382 6.11427 12.7928L7.23027 11.6768C8.70682 12.6571 10.6985 12.2548 11.6788 10.7783C12.3929 9.70268 12.3929 8.30388 11.6788 7.2283L13.0545 5.85258C14.3641 6.7248 15.5379 7.78535 16.5381 8.99997C15.5918 10.1462 12.5228 13.4999 9.00002 13.4999Z" fill="black"/>
</g>
<defs>
<clipPath id="clip0">
<rect width="18" height="18" fill="white"/>
</clipPath>
</defs>
</svg>
