<svg width="20" height="20" viewBox="0 0 20 20" fill="none" xmlns="http://www.w3.org/2000/svg">
<path opacity="0.2" d="M10.4082 0.999494L12.1146 6.25235C12.3403 6.94692 13.1155 7.50971 13.8453 7.50971H19.3683C20.0986 7.50971 20.2118 7.85743 19.6208 8.28668L15.1525 11.5334C14.5615 11.9631 14.2657 12.8736 14.4914 13.5677L16.1978 18.8202C16.4239 19.5147 16.1282 19.7289 15.5368 19.3005L11.0688 16.0543C10.4778 15.625 9.52014 15.625 8.92958 16.0543L4.46164 19.3005C3.87064 19.7302 3.57492 19.5147 3.80057 18.8202L5.50701 13.5677C5.73265 12.8732 5.43693 11.9622 4.84594 11.5334L0.378429 8.28624C-0.212568 7.85699 -0.0993044 7.50927 0.630957 7.50927H6.15353C6.88379 7.50927 7.65857 6.94648 7.88421 6.25191L9.59065 0.999053C9.81674 0.30493 10.1825 0.30493 10.4082 0.999494Z" fill="black"/>
</svg>
