<svg width="40" height="40" viewBox="0 0 40 40" fill="none" xmlns="http://www.w3.org/2000/svg">
<g clip-path="url(#clip0)">
<path d="M33.3272 14.7034C31.4785 7.33877 24.0097 2.86723 16.6451 4.71593C10.8898 6.16069 6.71076 11.1349 6.28018 17.0531C2.19368 17.727 -0.572818 21.586 0.101093 25.6725C0.700168 29.3055 3.8481 31.9661 7.53004 31.9515H13.7794V29.4517H7.53004C4.76894 29.4517 2.53059 27.2134 2.53059 24.4523C2.53059 21.6912 4.76894 19.4528 7.53004 19.4528C8.22036 19.4528 8.77991 18.8933 8.77991 18.203C8.77366 11.9904 13.8049 6.94912 20.0174 6.94295C25.3953 6.93756 30.0247 10.7395 31.065 16.0157C31.1677 16.5425 31.5952 16.945 32.1273 17.0156C35.5443 17.5022 37.9198 20.6666 37.4333 24.0835C36.9963 27.1518 34.3766 29.4363 31.2774 29.4517H26.278V31.9515H31.2774C36.1094 31.9369 40.0146 28.0079 39.9999 23.1759C39.9877 19.1537 37.2346 15.6579 33.3272 14.7034Z" fill="black"/>
<path d="M19.1401 19.8154L14.1406 24.8148L15.9029 26.5771L18.7776 23.715V35.7011H21.2773V23.715L24.1395 26.5771L25.9018 24.8148L20.9024 19.8154C20.4149 19.3307 19.6276 19.3307 19.1401 19.8154Z" fill="black"/>
</g>
<defs>
<clipPath id="clip0">
<rect width="40" height="40" fill="white"/>
</clipPath>
</defs>
</svg>
