<svg width="18" height="18" viewBox="0 0 18 18" fill="none" xmlns="http://www.w3.org/2000/svg">
<path d="M17.8856 8.64995C17.7248 8.42998 13.8934 3.26379 8.99991 3.26379C4.10647 3.26379 0.274852 8.42998 0.114223 8.64974C-0.0380743 8.85843 -0.0380743 9.14147 0.114223 9.35016C0.274852 9.57013 4.10647 14.7363 8.99991 14.7363C13.8934 14.7363 17.7248 9.5701 17.8856 9.35034C18.0381 9.14169 18.0381 8.85843 17.8856 8.64995ZM8.99991 13.5495C5.39537 13.5495 2.27345 10.1206 1.3493 8.99965C2.27226 7.87771 5.38764 4.4506 8.99991 4.4506C12.6043 4.4506 15.726 7.8789 16.6505 9.00046C15.7276 10.1224 12.6122 13.5495 8.99991 13.5495Z" fill="black"/>
<path d="M8.99795 5.43958C7.03475 5.43958 5.4375 7.03683 5.4375 9.00003C5.4375 10.9632 7.03475 12.5605 8.99795 12.5605C10.9611 12.5605 12.5584 10.9632 12.5584 9.00003C12.5584 7.03683 10.9611 5.43958 8.99795 5.43958ZM8.99795 11.3736C7.68908 11.3736 6.62434 10.3089 6.62434 9.00003C6.62434 7.6912 7.68912 6.62642 8.99795 6.62642C10.3068 6.62642 11.3716 7.6912 11.3716 9.00003C11.3716 10.3089 10.3068 11.3736 8.99795 11.3736Z" fill="black"/>
</svg>
